<svg width="140" height="40" viewBox="0 0 140 40" fill="none" xmlns="http://www.w3.org/2000/svg">
  <!-- IKONA (Sygnet) -->
  <defs>
    <linearGradient id="bg_grad" x1="4" y1="4" x2="36" y2="36" gradientUnits="userSpaceOnUse">
      <stop stop-color="#3b82f6"/>
      <stop offset="1" stop-color="#1d4ed8"/>
    </linearGradient>
  </defs>
  
  <rect x="4" y="4" width="32" height="32" rx="9" fill="url(#bg_grad)"/>
  
  <g transform="translate(4, 5)">
    <path d="M7 10C7 8.89543 7.89543 8 9 8H17L21 12V22C21 23.1046 20.1046 24 19 24H9C7.89543 24 7 23.1046 7 22V10Z" stroke="white" stroke-width="1.6"/>
    <path d="M10 7C10 5.89543 10.8954 5 12 5H19L24 10V20C24 21.1046 23.1046 22 22 22H12C10.8954 22 10 21.1046 10 20V7Z" fill="white"/>
    <path d="M19 5V8C19 9.10457 19.8954 10 21 10H24L19 5Z" fill="#e5e7eb"/>
    <rect x="13" y="13" width="7" height="1.6" rx="0.8" fill="#2563eb"/>
    <rect x="13" y="16" width="5" height="1.6" rx="0.8" fill="#2563eb"/>
    <circle cx="23" cy="19" r="5" fill="#16a34a" stroke="white" stroke-width="1.5"/>
    <path d="M21.5 19l1 1 2-2" stroke="white" stroke-width="1.2" stroke-linecap="round" stroke-linejoin="round"/>
  </g>

  <!-- TYPOGRAFIA (Tekst wzorowany na załączniku) -->
  <g transform="translate(45, 10)" fill="#111827">
    <!-- C -->
    <path d="M24 4.5H8.5C6 4.5 4 6.5 4 9V11C4 13.5 6 15.5 8.5 15.5H24" stroke="#111827" stroke-width="3" stroke-linecap="round" fill="none"/>
    <!-- R -->
    <path d="M29 15.5V4.5H39C41.5 4.5 43.5 6.5 43.5 9C43.5 11.5 41.5 13.5 39 13.5H35L43.5 21" stroke="#111827" stroke-width="3" stroke-linecap="round" fill="none" transform="translate(5, -2) scale(1.1)"/>
    <!-- P -->
    <path d="M54 15.5V4.5H64C66.5 4.5 68.5 6.5 68.5 9C68.5 11.5 66.5 13.5 64 13.5H54" stroke="#111827" stroke-width="3" stroke-linecap="round" fill="none" transform="translate(15, -2) scale(1.1)"/>
    <!-- E (Niebieskie akcenty) -->
    <rect x="85" y="3" width="18" height="3.5" rx="1.75" fill="#2563eb"/>
    <rect x="85" y="8.5" width="16" height="3.5" rx="1.75" fill="#2563eb"/>
    <rect x="85" y="14" width="18" height="3.5" rx="1.75" fill="#2563eb"/>
  </g>
</svg>
