<svg xmlns="http://www.w3.org/2000/svg" width="64" height="64" viewBox="0 0 256 256" fill="none">
  <rect x="16" y="16" width="224" height="224" rx="48" fill="#2563EB"/>

  <!-- większa biała "kartka" (mniej niebieskiego w środku) -->
  <path d="M62 56c0-9.9 8.1-18 18-18h78l40 40v108c0 9.9-8.1 18-18 18H80c-9.9 0-18-8.1-18-18V56Z"
        fill="#FFFFFF" opacity="0.99"/>

  <!-- zagięty róg -->
  <path d="M158 38v34c0 7.2 5.8 13 13 13h34"
        fill="none" stroke="#2563EB" stroke-width="12" stroke-linecap="round" stroke-linejoin="round" opacity="0.9"/>

  <!-- linie na "kartce" -->
  <path d="M88 116h92" stroke="#2563EB" stroke-width="12" stroke-linecap="round" opacity="0.9"/>
  <path d="M88 154h78" stroke="#2563EB" stroke-width="12" stroke-linecap="round" opacity="0.9"/>

  <!-- większy badge + większy krzyż -->
  <g transform="translate(156,154)">
    <circle cx="40" cy="40" r="34" fill="#2563EB"/>
    <path d="M40 18v44M18 40h44" stroke="#FFFFFF" stroke-width="16" stroke-linecap="round"/>
  </g>
</svg>
