<svg width="32" height="32" viewBox="0 0 32 32" fill="none" xmlns="http://www.w3.org/2000/svg">
  <defs>
    <linearGradient id="bg_grad" x1="0" y1="0" x2="32" y2="32" gradientUnits="userSpaceOnUse">
      <stop stop-color="#3b82f6"/>
      <stop offset="1" stop-color="#1d4ed8"/>
    </linearGradient>
  </defs>
  <rect width="32" height="32" rx="9" fill="url(#bg_grad)"/>
  
  <g transform="translate(0, 1)">
    <!-- TYLNY DOKUMENT: Teraz biały, grubszy (1.6px) i bez przezroczystości, by był idealnie widoczny -->
    <path d="M7 10C7 8.89543 7.89543 8 9 8H17L21 12V22C21 23.1046 20.1046 24 19 24H9C7.89543 24 7 23.1046 7 22V10Z" stroke="white" stroke-width="1.6"/>
    
    <!-- PRZEDNI DOKUMENT: Z wyraźnym marginesem od tego pod spodem -->
    <path d="M10 7C10 5.89543 10.8954 5 12 5H19L24 10V20C24 21.1046 23.1046 22 22 22H12C10.8954 22 10 21.1046 10 20V7Z" fill="white" stroke="url(#bg_grad)" stroke-width="0.5"/>
    <path d="M19 5V8C19 9.10457 19.8954 10 21 10H24L19 5Z" fill="#e5e7eb"/>
    
    <!-- Kreski tekstu: Optymalna grubość -->
    <rect x="13" y="13" width="7" height="1.6" rx="0.8" fill="#2563eb"/>
    <rect x="13" y="16" width="5" height="1.6" rx="0.8" fill="#2563eb"/>
    
    <!-- Odznaka sukcesu -->
    <circle cx="23" cy="19" r="5" fill="#16a34a" stroke="white" stroke-width="1.5"/>
    <path d="M21.5 19l1 1 2-2" stroke="white" stroke-width="1.2" stroke-linecap="round" stroke-linejoin="round"/>
  </g>
</svg>
